<svg width="24" height="24" viewBox="0 0 24 24" fill="none" xmlns="http://www.w3.org/2000/svg">
<g clip-path="url(#clip0_11701_910)">
<path d="M12 24C18.6274 24 24 18.6274 24 12C24 5.37258 18.6274 0 12 0C5.37258 0 0 5.37258 0 12C0 18.6274 5.37258 24 12 24Z" fill="#D80027"/>
<path d="M6.56719 7.30322L7.60313 10.4907H10.9547L8.24531 12.4642L9.28125 15.6517L6.56719 13.6829L3.85313 15.6517L4.89375 12.4642L2.17969 10.4907H5.53125L6.56719 7.30322Z" fill="#FFDA44"/>
<path d="M14.2265 18.5862L13.4343 17.6112L12.2624 18.0659L12.9421 17.0112L12.1499 16.0315L13.364 16.355L14.0483 15.3003L14.114 16.5565L15.3327 16.88L14.1562 17.33L14.2265 18.5862Z" fill="#FFDA44"/>
<path d="M15.8044 15.7264L16.1794 14.5264L15.1528 13.7998L16.4091 13.7811L16.7794 12.5811L17.1872 13.7717L18.4435 13.7576L17.4356 14.5076L17.8388 15.6982L16.8122 14.9717L15.8044 15.7264Z" fill="#FFDA44"/>
<path d="M17.9266 8.80771L17.3734 9.9374L18.2734 10.814L17.0312 10.6358L16.4781 11.7608L16.2625 10.5233L15.0156 10.3452L16.1313 9.75928L15.9156 8.51709L16.8156 9.39365L17.9266 8.80771Z" fill="#FFDA44"/>
<path d="M14.2641 5.38623L14.1703 6.63779L15.3375 7.11123L14.1141 7.41123L14.025 8.66748L13.3641 7.59873L12.1406 7.89873L12.9516 6.93779L12.2859 5.87373L13.4531 6.34717L14.2641 5.38623Z" fill="#FFDA44"/>
</g>
<rect x="0.5" y="0.5" width="23" height="23" rx="11.5" stroke="white"/>
<defs>
<clipPath id="clip0_11701_910">
<rect width="24" height="24" rx="12" fill="white"/>
</clipPath>
</defs>
</svg>
