<svg width="24" height="24" viewBox="0 0 24 24" fill="none" xmlns="http://www.w3.org/2000/svg">
<g clip-path="url(#clip0_11701_893)">
<path d="M0 12.0001C0 13.4679 0.264047 14.874 0.746391 16.174L12 17.2175L23.2536 16.174C23.736 14.874 24 13.4679 24 12.0001C24 10.5322 23.736 9.12618 23.2536 7.8262L12 6.78271L0.746391 7.8262C0.264047 9.12618 0 10.5322 0 12.0001H0Z" fill="#FFDA44"/>
<path d="M23.2536 7.82611C21.558 3.25655 17.1595 0 11.9999 0C6.84037 0 2.44185 3.25655 0.746338 7.82611H23.2536Z" fill="#D80027"/>
<path d="M0.746338 16.1738C2.44185 20.7434 6.84037 23.9999 11.9999 23.9999C17.1595 23.9999 21.558 20.7434 23.2536 16.1738H0.746338Z" fill="#D80027"/>
</g>
<rect x="0.5" y="0.5" width="23" height="23" rx="11.5" stroke="white"/>
<defs>
<clipPath id="clip0_11701_893">
<rect width="24" height="24" rx="12" fill="white"/>
</clipPath>
</defs>
</svg>
